<?xml version="1.0" encoding="UTF-8"?>
<svg width="700pt" height="700pt" version="1.1" viewBox="0 0 700 700" xmlns="http://www.w3.org/2000/svg">
 <g>
  <path d="m227.18 339.54h-23.359v34.844h23.363c9.3789 0 16.801-8.2617 16.801-16.941-0.003906-9.7812-7.4219-17.902-16.805-17.902z"/>
  <path d="m321.42 339.54h-23.363v34.844h23.363c9.3789 0 16.801-8.2617 16.801-16.941 0-9.7812-7.4219-17.902-16.801-17.902z"/>
  <path d="m507.5 262.5h-385c-9.625 0-17.5 7.875-17.5 17.5v175c0 9.625 7.875 17.5 17.5 17.5h385c9.6406 0 17.5-7.875 17.5-17.5v-175c0-9.625-7.8594-17.5-17.5-17.5zm-280.32 129.38h-23.359v18.48c0 6.1562-3.9219 9.6406-8.9609 9.6406-4.6211 0-9.5039-3.4844-9.5039-9.6602v-78.766c0-4.6211 3.6406-9.6758 9.5039-9.6758h32.324c18.199 0 34.578 12.18 34.578 35.543 0 22.117-16.379 34.438-34.582 34.438zm94.238 0h-23.363v18.48c0 6.1758-3.9219 9.6602-8.9609 9.6602-4.6211 0-9.5195-3.4844-9.5195-9.6602v-78.766c0-4.6211 3.6406-9.6758 9.5195-9.6758h32.324c18.199 0 34.578 12.18 34.578 35.543-0.015625 22.098-16.379 34.418-34.578 34.418zm120.24-51.207h-23.203v70.648c0 12.164-18.496 12.461-18.496 0v-70.648h-24.465c-12.18 0-12.18-17.902 0-17.902h66.168c12.473-0.015625 12.473 17.902-0.003907 17.902z"/>
  <path d="m577.5 132.75-115.25-115.25c-10.117-10.148-27.895-17.5-42.246-17.5h-192.5c-28.945 0-52.5 23.555-52.5 52.5v175c0 9.6758 7.8242 17.5 17.5 17.5s17.5-7.8242 17.5-17.5v-175c0-9.6406 7.8398-17.5 17.5-17.5h157.5c19.336 0 35 15.68 35 35v65.625c0 21.664 17.746 39.375 39.375 39.375h65.625c19.336 0 35 15.68 35 35v297.5c0 9.6406-7.8242 17.5-17.5 17.5h-315c-9.6602 0-17.5-7.8594-17.5-17.5 0-9.6758-7.8242-17.5-17.5-17.5s-17.5 7.8242-17.5 17.5c0 28.945 23.555 52.5 52.5 52.5h315c28.945 0 52.5-23.555 52.5-52.5v-332.5c0-14.332-7.3516-32.113-17.5-42.246z"/>
 </g>
</svg>
