<svg xmlns="http://www.w3.org/2000/svg" xmlns:xlink="http://www.w3.org/1999/xlink" version="1.1" x="0px" y="0px" viewBox="0 0 100 125" enable-background="new 0 0 100 100" xml:space="preserve"><g><g><path d="M5.23,58.544c-0.104,0-0.207-0.032-0.294-0.095c-0.154-0.112-0.231-0.302-0.199-0.49l0.954-5.561l-4.04-3.939    c-0.137-0.133-0.186-0.332-0.126-0.513c0.059-0.181,0.215-0.313,0.404-0.34l5.583-0.812l2.498-5.06    c0.084-0.17,0.258-0.279,0.449-0.279l0,0c0.19,0,0.364,0.108,0.449,0.279l2.497,5.059l5.584,0.812    c0.188,0.027,0.345,0.159,0.404,0.34c0.059,0.181,0.01,0.38-0.127,0.513l-4.041,3.939l0.955,5.561    c0.032,0.188-0.045,0.378-0.199,0.489c-0.153,0.112-0.358,0.128-0.527,0.038l-4.995-2.626l-4.995,2.626    C5.39,58.525,5.31,58.544,5.23,58.544z"/></g><g><path d="M35.456,58.544c-0.08,0-0.16-0.019-0.233-0.058l-4.995-2.626l-4.994,2.626c-0.168,0.09-0.372,0.074-0.527-0.037    c-0.154-0.112-0.231-0.302-0.199-0.49l0.953-5.561l-4.04-3.939c-0.137-0.133-0.186-0.332-0.126-0.513    c0.059-0.181,0.215-0.313,0.404-0.34l5.584-0.812l2.497-5.059c0.169-0.342,0.729-0.341,0.897,0l2.498,5.06l5.583,0.812    c0.188,0.027,0.345,0.159,0.404,0.34c0.059,0.181,0.01,0.38-0.126,0.513l-4.04,3.939l0.954,5.561    c0.032,0.188-0.045,0.378-0.199,0.49C35.663,58.512,35.56,58.544,35.456,58.544z"/></g><g><path d="M55.227,58.544c-0.08,0-0.16-0.019-0.232-0.058L50,55.86l-4.995,2.626c-0.167,0.09-0.373,0.074-0.527-0.037    c-0.154-0.112-0.231-0.302-0.199-0.49l0.954-5.561l-4.04-3.939c-0.137-0.133-0.186-0.332-0.126-0.513    c0.059-0.181,0.215-0.313,0.404-0.34l5.583-0.812l2.498-5.06c0.084-0.17,0.258-0.279,0.449-0.279l0,0    c0.19,0,0.364,0.108,0.449,0.279l2.497,5.059l5.584,0.812c0.188,0.027,0.345,0.159,0.403,0.34c0.06,0.181,0.01,0.38-0.126,0.513    l-4.041,3.939l0.954,5.561c0.032,0.188-0.045,0.378-0.199,0.49C55.434,58.512,55.33,58.544,55.227,58.544z"/></g><g><path d="M64.543,58.544c-0.104,0-0.207-0.032-0.294-0.095c-0.154-0.112-0.231-0.302-0.199-0.49l0.954-5.561l-4.041-3.939    c-0.136-0.133-0.186-0.332-0.126-0.513c0.059-0.181,0.215-0.313,0.403-0.34l5.584-0.812l2.497-5.059    c0.168-0.342,0.729-0.341,0.896,0l2.499,5.059l5.584,0.812c0.188,0.027,0.345,0.159,0.403,0.34c0.06,0.181,0.01,0.38-0.126,0.513    l-4.041,3.939l0.954,5.561c0.032,0.188-0.045,0.378-0.199,0.489c-0.154,0.112-0.358,0.128-0.526,0.038L69.77,55.86l-4.994,2.626    C64.703,58.525,64.623,58.544,64.543,58.544z M69.77,54.795c0.08,0,0.16,0.019,0.232,0.058l4.332,2.276l-0.827-4.82    c-0.027-0.163,0.026-0.328,0.144-0.443l3.503-3.416l-4.841-0.704c-0.163-0.024-0.304-0.126-0.376-0.273l-2.167-4.387l-2.165,4.386    c-0.072,0.148-0.213,0.25-0.376,0.274l-4.841,0.704l3.503,3.416c0.117,0.115,0.171,0.28,0.144,0.443l-0.827,4.82l4.33-2.276    C69.609,54.813,69.689,54.795,69.77,54.795z"/></g><g><path d="M94.77,58.544c-0.08,0-0.16-0.019-0.232-0.058l-4.994-2.626l-4.996,2.626c-0.168,0.09-0.372,0.074-0.526-0.038    c-0.154-0.111-0.231-0.301-0.199-0.489l0.954-5.561l-4.041-3.939c-0.136-0.133-0.186-0.332-0.126-0.513    c0.059-0.181,0.215-0.313,0.403-0.34l5.584-0.812l2.499-5.059c0.084-0.17,0.258-0.279,0.448-0.279l0,0    c0.19,0,0.364,0.108,0.448,0.279l2.497,5.059l5.584,0.812c0.188,0.027,0.345,0.159,0.403,0.34c0.06,0.181,0.01,0.38-0.126,0.513    l-4.041,3.939l0.954,5.561c0.032,0.188-0.045,0.378-0.199,0.49C94.977,58.512,94.873,58.544,94.77,58.544z M82.159,48.45    l3.503,3.416c0.117,0.115,0.171,0.28,0.144,0.443l-0.827,4.82l4.332-2.276c0.145-0.078,0.32-0.078,0.465,0l4.33,2.276l-0.827-4.82    c-0.027-0.163,0.026-0.328,0.144-0.443l3.503-3.416l-4.841-0.704c-0.163-0.024-0.304-0.126-0.376-0.274l-2.165-4.386l-2.167,4.387    c-0.072,0.147-0.213,0.25-0.376,0.273L82.159,48.45z"/></g></g><text x="0" y="115" fill="#000000" font-size="5px" font-weight="bold" font-family="'Helvetica Neue', Helvetica, Arial-Unicode, Arial, Sans-serif">Created by Randomhero</text><text x="0" y="120" fill="#000000" font-size="5px" font-weight="bold" font-family="'Helvetica Neue', Helvetica, Arial-Unicode, Arial, Sans-serif">from the Noun Project</text></svg>