<?xml version="1.0" encoding="UTF-8"?>
<svg width="700pt" height="700pt" version="1.1" viewBox="0 0 700 700" xmlns="http://www.w3.org/2000/svg">
 <g>
  <path d="m406 420v-56h-140v-140h-56v140h-140v56h140v140h56v-140z"/>
  <path d="m574 0h-448c-14.852 0-29.098 5.8984-39.598 16.402-10.504 10.5-16.402 24.746-16.402 39.598v224h56v-224h448v448h-224v56h224c14.852 0 29.098-5.8984 39.598-16.402 10.504-10.5 16.402-24.746 16.402-39.598v-448c0-14.852-5.8984-29.098-16.402-39.598-10.5-10.504-24.746-16.402-39.598-16.402z"/>
 </g>
</svg>
