<?xml version="1.0" encoding="UTF-8"?>
<svg width="700pt" height="700pt" version="1.1" viewBox="0 0 700 500" xmlns="http://www.w3.org/2000/svg">
 <path d="m96.426 365.75 52.5 91c2.3086 4.0508 6.1367 7.0117 10.641 8.2266 4.5 1.2148 9.3008 0.58594 13.332-1.75l57.051-32.898v-0.003906c15.102 12.188 31.98 21.984 50.051 29.051v65.625c0 4.6406 1.8438 9.0938 5.125 12.375s7.7344 5.125 12.375 5.125h105c4.6406 0 9.0938-1.8438 12.375-5.125s5.125-7.7344 5.125-12.375v-65.625c18.082-7.1211 34.961-16.977 50.051-29.227l57.051 32.898v0.003906c4.0312 2.3359 8.832 2.9688 13.332 1.75 4.5039-1.2148 8.332-4.1758 10.641-8.2266l52.5-91c2.3359-4.0352 2.9688-8.832 1.7539-13.336-1.2148-4.5-4.1797-8.3281-8.2266-10.637l-56.875-32.898v-0.003906c3.0039-19.191 3.0039-38.734 0-57.926l56.875-32.898c4.0469-2.3086 7.0117-6.1406 8.2266-10.641s0.58203-9.3008-1.7539-13.336l-52.5-91c-2.3086-4.0469-6.1367-7.0117-10.641-8.2266-4.5-1.2148-9.3008-0.58203-13.332 1.7539l-57.051 33.426c-15.094-12.246-31.973-22.102-50.051-29.227v-65.625c0-4.6406-1.8438-9.0938-5.125-12.375s-7.7344-5.125-12.375-5.125h-105c-4.6406 0-9.0938 1.8438-12.375 5.125s-5.125 7.7344-5.125 12.375v65.625c-18.078 7.125-34.957 16.98-50.051 29.227l-57.051-32.902c-4.0312-2.3359-8.832-2.9688-13.332-1.75-4.5039 1.2148-8.332 4.1758-10.641 8.2266l-52.5 91c-2.3359 4.0352-2.9688 8.832-1.7539 13.336 1.2148 4.5 4.1797 8.3281 8.2266 10.637l56.875 32.898v0.003906c-3.0039 19.191-3.0039 38.734 0 57.926l-56.875 32.723c-4 2.3086-6.9297 6.1055-8.1406 10.566-1.2148 4.457-0.61328 9.2148 1.668 13.234zm253.57-190.75c27.848 0 54.555 11.062 74.246 30.754s30.754 46.398 30.754 74.246-11.062 54.555-30.754 74.246-46.398 30.754-74.246 30.754-54.555-11.062-74.246-30.754-30.754-46.398-30.754-74.246 11.062-54.555 30.754-74.246 46.398-30.754 74.246-30.754z"/>
</svg>
