<?xml version="1.0" encoding="UTF-8"?>
<svg width="700pt" height="700pt" version="1.1" viewBox="0 0 700 700" xmlns="http://www.w3.org/2000/svg">
 <g>
  <path d="m223.12 339.54h-23.363v34.844h23.363c9.3789 0 16.801-8.2617 16.801-16.941-0.019531-9.7812-7.4219-17.902-16.801-17.902z"/>
  <path d="m317.15 340.23h-23.223v62.684h23.223c37.781 0.003906 39.445-62.684 0-62.684z"/>
  <path d="m507.5 262.5h-385c-9.625 0-17.5 7.875-17.5 17.5v175c0 9.625 7.875 17.5 17.5 17.5h385c9.6406 0 17.5-7.875 17.5-17.5v-175c0-9.625-7.8594-17.5-17.5-17.5zm-284.38 129.38h-23.363v18.48c0 6.1562-3.918 9.6406-8.9609 9.6406-4.6211 0-9.5039-3.4844-9.5039-9.6602v-78.766c0-4.6211 3.6406-9.6758 9.5039-9.6758l32.324-0.003907c18.199 0 34.578 12.18 34.578 35.543-0.015625 22.121-16.379 34.441-34.578 34.441zm95.289 28.121h-33.301c-4.6211 0-9.6602-2.5391-9.6602-8.6797v-79.469c0-5.0391 5.0391-8.6797 9.6602-8.6797h32.043c63.941 0 62.543 96.828 1.2578 96.828zm124.69-78.645h-40.738v22.242h35.684c5.0586 0 10.078 5.0391 10.078 9.9414 0 4.6211-5.0234 8.3828-10.078 8.3828h-35.684v29.383c0 4.8984-3.4844 8.6797-8.3828 8.6797-6.1602 0-9.9414-3.7812-9.9414-8.6797v-79.469c0-5.0391 3.7969-8.6797 9.9414-8.6797h49.121c6.1602 0 9.7812 3.6406 9.7812 8.6797 0 4.4961-3.6211 9.5195-9.7812 9.5195z"/>
  <path d="m577.5 132.75-115.25-115.25c-10.117-10.148-27.895-17.5-42.246-17.5h-192.5c-28.945 0-52.5 23.555-52.5 52.5v175c0 9.6758 7.8242 17.5 17.5 17.5s17.5-7.8242 17.5-17.5v-175c0-9.6406 7.8398-17.5 17.5-17.5h157.5c19.336 0 35 15.68 35 35v65.625c0 21.664 17.746 39.375 39.375 39.375h65.625c19.336 0 35 15.68 35 35v297.5c0 9.6406-7.8242 17.5-17.5 17.5h-315c-9.6602 0-17.5-7.8594-17.5-17.5 0-9.6758-7.8242-17.5-17.5-17.5s-17.5 7.8242-17.5 17.5c0 28.945 23.555 52.5 52.5 52.5h315c28.945 0 52.5-23.555 52.5-52.5v-332.5c0-14.332-7.3516-32.113-17.5-42.246z"/>
 </g>
</svg>
